<?xml version="1.0" encoding="utf-8"?>
<!-- Generator: Adobe Illustrator 23.0.3, SVG Export Plug-In . SVG Version: 6.00 Build 0)  -->
<svg version="1.1" id="Layer_1" xmlns="http://www.w3.org/2000/svg" xmlns:xlink="http://www.w3.org/1999/xlink" x="0px" y="0px"
	 viewBox="0 0 1200 1200" enable-background="new 0 0 1200 1200" xml:space="preserve">
<g>
	<path fill="#8E4A40" d="M365.827,100.831c94.007,53.85,132.11,121.082,140.918,166.488s-4.404,58.649-4.404,58.649l-22.018-11.351
		c0,0,35.229-39.73-30.826-100.271s-143.12-75.676-134.312-92.703C323.992,104.614,359.221,97.047,365.827,100.831z"/>
	<path fill="#E05636" d="M244.188,783.301c124.107,80.305,277.416,51.103,408.824-21.901
		c176.221-108.444,320.827-323.854,247.181-529.403c-14.979-15.541-32.272-27.917-52.163-35.938
		c-136.514-55.046-275.556,87.216-343.487,107.891c-101.285,30.825-121.101-158.533-334.68-59.45
		C58.265,296.271,34.467,463.465,58.513,629.858C111.999,691.266,179.37,743.175,244.188,783.301z"/>
	<path fill="#CA4117" d="M900.193,231.996c73.646,205.549-70.96,420.959-247.181,529.403
		c-131.408,73.004-284.717,102.206-408.824,21.901c-64.818-40.126-132.189-92.034-185.675-153.443
		c21.974,152.053,83.896,303.44,155.387,365.469c149.725,129.909,191.56,52.844,235.597,35.23
		c44.037-17.615,134.313,85.873,226.79,28.624c92.478-57.249,211.377-279.634,268.625-416.148
		C993.818,526.41,988.014,323.113,900.193,231.996z"/>
	<path fill="#EDE6C3" d="M933.902,1078.302c50.642-13.212,103.487-16.921,165.138-116.002
		c61.652-99.083,39.633-187.157,41.835-226.79c0.356-6.414-0.093-13.306-1.003-20.325c-5.466-19.745-12.777-33.643-21.015-43.528
		c-22.019-26.423-57.248-39.634-57.248-39.634s-48.441,61.652-149.725,114.495c-87.23,45.512-184.19,48.558-209.438,48.528
		c0.821,36.443,6.616,103.732,35.492,158.446C779.773,1032.758,883.26,1091.514,933.902,1078.302z"/>
	<path fill="#E05636" d="M645.46,973.309c22.018,68.257,28.624,110.092,198.166,125.506
		c169.542,15.412,295.047-107.891,303.854-226.79c5.512-74.415,1.535-123.811-7.609-156.839c0.91,7.019,1.359,13.911,1.003,20.325
		c-2.202,39.633,19.817,127.707-41.835,226.79c-61.651,99.082-114.496,102.791-165.138,116.002s-154.129-45.544-195.964-124.81
		c-28.877-54.714-34.672-122.002-35.492-158.446c-4.068-0.005-6.342-0.086-6.342-0.086S623.442,905.052,645.46,973.309z"/>
	<path fill="#BB5524" d="M880.803,810.057c16.361-7.182,34.53-9.148,51.368-15.134c21.326-7.583,40.186-30.715,5.377-25.879
		C911.141,772.712,901.203,801.103,880.803,810.057z"/>
	<path fill="#E59393" d="M262.843,303.313c-36.657,15.693-65.985,47.664-78.464,85.536c-2.575,7.815-5.189,16.769-12.553,20.439
		c-7.368,3.672-16.733,0.027-21.998-6.302c-5.265-6.329-7.322-14.672-8.868-22.758c-3.519-18.405-5.115-37.855,1.061-55.546
		c4.436-12.706,12.602-23.713,20.65-34.501c18.43-24.704,45.934-47.775,79.147-39.174
		C268.39,257.887,299.517,287.612,262.843,303.313z"/>
</g>
</svg>
