<svg xmlns="http://www.w3.org/2000/svg" version="1.1" xmlns:xlink="http://www.w3.org/1999/xlink" xmlns:svgjs="http://svgjs.com/svgjs" width="1440" height="560" preserveAspectRatio="none" viewBox="0 0 1440 560"><g mask="url(&quot;#SvgjsMask1005&quot;)" fill="none"><rect width="1440" height="560" x="0" y="0" fill="rgba(2, 25, 33, 1)"></rect><path d="M 0,134 C 96,123.2 288,84.6 480,80 C 672,75.4 768,116.6 960,111 C 1152,105.4 1344,63.8 1440,52L1440 560L0 560z" fill="rgba(22, 125, 190, 1)"></path><path d="M 0,289 C 144,274 432,206 720,214 C 1008,222 1296,306 1440,329L1440 560L0 560z" fill="rgba(24, 74, 126, 1)"></path><path d="M 0,494 C 144,478.2 432,405.4 720,415 C 1008,424.6 1296,516.6 1440,542L1440 560L0 560z" fill="rgba(2, 25, 33, 1)"></path></g><defs><mask id="SvgjsMask1005"><rect width="1440" height="560" fill="#ffffff"></rect></mask></defs></svg>